<?xml version="1.0" standalone="no"?>
<!DOCTYPE svg PUBLIC "-//W3C//DTD SVG 20010904//EN"
 "http://www.w3.org/TR/2001/REC-SVG-20010904/DTD/svg10.dtd">
<svg version="1.0" xmlns="http://www.w3.org/2000/svg"
 width="720.000000pt" height="720.000000pt" viewBox="0 0 720.000000 720.000000"
 preserveAspectRatio="xMidYMid meet">
<metadata>
Created by potrace 1.11, written by Peter Selinger 2001-2013
</metadata>
<g transform="translate(0.000000,720.000000) scale(0.100000,-0.100000)"
fill="#000000" stroke="none">
<path d="M2032 6823 c-16 -12 -45 -46 -63 -75 -18 -29 -36 -55 -39 -58 -7 -7
-21 -32 -59 -110 -18 -36 -37 -73 -42 -83 -12 -22 -55 -142 -60 -165 -1 -4 -5
-17 -10 -30 -9 -24 -10 -27 -33 -141 -14 -73 -16 -298 -3 -351 4 -14 12 -50
18 -80 15 -77 83 -275 118 -342 l30 -56 -26 -74 c-31 -90 -40 -241 -18 -333
40 -169 163 -326 319 -406 l51 -26 0 -326 0 -326 -46 -40 c-26 -22 -68 -68
-93 -103 -26 -35 -53 -70 -59 -78 -11 -13 -58 -104 -62 -120 -1 -3 -6 -16 -12
-30 -98 -236 -84 -525 37 -757 120 -229 317 -390 565 -461 89 -26 156 -35 277
-37 54 0 99 -3 101 -6 3 -2 22 -34 44 -70 56 -93 102 -144 188 -209 77 -59
197 -114 292 -136 58 -13 242 -13 292 1 28 7 51 12 51 10 0 -3 80 28 152 59
42 18 163 109 194 146 12 14 30 35 40 47 26 30 40 51 73 108 l28 49 104 2
c141 2 221 15 333 54 160 55 344 193 434 325 15 22 29 42 32 45 3 3 23 38 43
78 64 125 101 280 99 417 0 61 -11 165 -18 176 -2 3 -6 21 -9 40 -22 132 -148
347 -263 450 l-47 42 -1 323 0 324 75 44 c108 62 178 134 236 239 79 144 95
325 43 477 l-26 75 24 53 c68 149 120 307 140 427 18 109 9 326 -18 430 -5 22
-11 47 -13 55 -20 102 -182 444 -217 458 -4 2 -8 9 -8 16 0 7 -12 24 -27 38
-77 71 -117 63 -273 -58 -180 -139 -335 -329 -427 -525 l-31 -66 -69 3 c-122
6 -260 -34 -363 -104 l-45 -31 -31 24 c-43 33 -142 80 -200 94 -70 18 -209 21
-282 5 -71 -15 -153 -50 -216 -93 l-43 -29 -44 30 c-103 70 -224 105 -357 104
-45 -1 -82 3 -82 8 0 20 -93 196 -127 241 -5 6 -21 28 -38 50 -73 99 -133 159
-295 299 -14 12 -40 31 -58 41 -18 11 -32 22 -32 26 0 9 -54 23 -92 24 -15 1
-40 -9 -56 -22z m145 -305 c51 -44 183 -180 183 -189 0 -4 6 -14 13 -21 27
-28 63 -86 99 -158 35 -69 36 -75 21 -92 -9 -10 -21 -18 -27 -18 -20 0 -135
-130 -169 -192 -34 -62 -63 -140 -70 -188 -3 -19 -20 -34 -73 -63 -38 -21 -70
-42 -72 -47 -5 -12 -32 -13 -32 -1 0 5 -8 26 -17 47 -20 48 -18 39 -49 154
-36 130 -41 282 -14 400 11 47 23 96 26 109 3 13 14 44 24 67 11 24 20 46 20
51 0 14 84 173 92 173 4 0 24 -15 45 -32z m2911 5 c10 -16 26 -46 36 -68 10
-22 25 -53 33 -70 17 -34 46 -118 63 -185 7 -25 15 -54 18 -65 8 -31 8 -256
-1 -300 -4 -22 -12 -53 -17 -70 -5 -16 -11 -41 -14 -55 -7 -39 -57 -170 -66
-170 -4 0 -18 8 -31 19 -13 10 -48 30 -76 45 -39 19 -54 33 -59 54 -37 167
-110 279 -262 399 l-22 18 38 75 c36 70 70 129 82 140 3 3 23 27 45 55 46 57
195 205 206 205 4 0 16 -12 27 -27z m-2116 -636 c34 -15 85 -52 127 -91 60
-56 76 -66 106 -66 47 0 69 12 132 75 152 152 370 150 528 -3 99 -95 150 -96
237 -6 148 154 372 162 528 18 69 -64 105 -150 114 -273 5 -65 36 -102 99
-121 118 -35 203 -105 251 -206 40 -82 44 -184 12 -276 -24 -70 -30 -79 -91
-140 -92 -92 -231 -126 -362 -89 -53 14 -129 66 -177 118 -40 45 -96 66 -136
51 -13 -5 -53 -37 -91 -72 -78 -74 -149 -106 -248 -111 -111 -5 -204 34 -288
122 -82 85 -140 86 -221 4 -89 -91 -179 -130 -287 -125 -115 5 -168 28 -260
115 -98 92 -147 94 -230 7 -109 -114 -256 -152 -399 -103 -150 52 -246 190
-244 352 1 37 4 73 7 78 3 6 6 15 7 22 8 48 88 158 145 198 32 22 79 46 79 39
0 -3 7 -1 15 6 8 7 15 10 15 6 0 -14 81 36 97 60 9 14 18 49 20 76 9 174 110
303 278 356 55 17 175 6 237 -21z m-112 -1322 c34 -28 129 -72 190 -89 81 -23
205 -27 289 -10 71 15 178 62 228 100 l33 25 33 -25 c53 -41 159 -85 237 -100
85 -17 205 -13 272 7 26 8 49 12 52 9 4 -3 6 0 6 6 0 7 8 12 18 12 10 0 50 20
89 44 l71 45 40 -30 c72 -53 196 -95 304 -103 20 -2 22 -46 23 -364 1 -319 2
-349 19 -374 10 -16 21 -28 25 -28 16 0 143 -131 180 -187 67 -99 114 -251
114 -368 1 -206 -102 -412 -271 -543 -52 -40 -191 -107 -247 -117 -22 -5 -47
-10 -55 -12 -8 -2 -89 -5 -180 -7 -178 -3 -215 -12 -237 -58 -6 -12 -26 -54
-44 -93 -38 -83 -136 -187 -215 -227 -193 -100 -425 -65 -584 88 -50 48 -71
82 -134 214 -33 67 -50 73 -230 75 -176 2 -209 6 -306 37 -145 47 -268 143
-355 278 -60 92 -85 165 -102 285 -12 92 -3 187 28 284 14 42 60 144 68 151 4
3 23 28 43 55 20 28 60 70 89 95 73 62 99 90 100 109 1 9 3 169 4 356 2 187 3
342 4 345 0 3 13 6 29 6 106 5 254 61 320 122 14 12 24 10 52 -13z"/>
<path d="M2815 4233 c-76 -21 -160 -136 -150 -203 2 -8 5 -29 8 -46 2 -17 12
-44 21 -61 18 -35 86 -93 109 -93 9 0 18 -4 21 -9 10 -15 112 -4 153 17 73 38
114 104 115 185 1 82 -40 154 -112 196 -25 14 -131 24 -165 14z"/>
<path d="M4235 4226 c-94 -53 -126 -104 -126 -201 0 -49 3 -62 23 -100 67
-125 254 -147 347 -40 52 61 69 166 37 230 -18 36 -63 85 -97 104 -30 18 -156
23 -184 7z"/>
<path d="M3415 3150 c-112 -7 -155 -41 -155 -121 0 -74 61 -119 161 -119 l60
0 0 -117 c0 -65 0 -125 0 -133 0 -8 0 -35 -2 -60 -2 -56 21 -113 55 -136 35
-22 96 -23 129 -1 47 30 57 64 56 194 0 111 1 139 4 221 l2 33 70 3 c76 2 104
15 129 57 33 57 7 144 -52 168 -30 13 -320 20 -457 11z"/>
</g>
</svg>
